<mxfile host="app.diagrams.net" modified="2023-11-27T18:37:20.321Z" agent="Mozilla/5.0 (Windows NT 10.0; Win64; x64) AppleWebKit/537.36 (KHTML, like Gecko) Chrome/119.0.0.0 Safari/537.36 Edg/119.0.0.0" etag="FWjMm2iALhi8dRIhrXdY" version="22.1.4" type="github">
  <diagram name="Page-1" id="c4acf3e9-155e-7222-9cf6-157b1a14988f">
    <mxGraphModel dx="2052" dy="842" grid="1" gridSize="10" guides="1" tooltips="1" connect="1" arrows="1" fold="1" page="1" pageScale="1" pageWidth="850" pageHeight="1100" background="none" math="0" shadow="0">
      <root>
        <mxCell id="0" />
        <mxCell id="1" parent="0" />
        <mxCell id="4qUUGRl81VGEQDzuzcbY-35" value="" style="group" vertex="1" connectable="0" parent="1">
          <mxGeometry x="160" y="240" width="570" height="221" as="geometry" />
        </mxCell>
        <mxCell id="4qUUGRl81VGEQDzuzcbY-22" value="&lt;p style=&quot;margin:0px;margin-top:4px;text-align:center;&quot;&gt;&lt;b&gt;UserInterfaceUI:DOsenUI&lt;/b&gt;&lt;/p&gt;&lt;p style=&quot;margin:0px;margin-top:4px;text-align:center;&quot;&gt;&lt;b&gt;(from Use Case View)&lt;/b&gt;&lt;/p&gt;&lt;hr size=&quot;1&quot;&gt;&lt;p style=&quot;margin:0px;margin-left:4px;&quot;&gt;+ index()&lt;/p&gt;" style="verticalAlign=top;align=left;overflow=fill;fontSize=12;fontFamily=Helvetica;html=1;whiteSpace=wrap;" vertex="1" parent="4qUUGRl81VGEQDzuzcbY-35">
          <mxGeometry width="160" height="80" as="geometry" />
        </mxCell>
        <mxCell id="4qUUGRl81VGEQDzuzcbY-25" value="&lt;p style=&quot;margin:0px;margin-top:4px;text-align:center;&quot;&gt;&lt;b&gt;control:DosenC&lt;/b&gt;&lt;/p&gt;&lt;p style=&quot;margin:0px;margin-top:4px;text-align:center;&quot;&gt;&lt;b&gt;(from Use Case View)&lt;/b&gt;&lt;/p&gt;&lt;hr size=&quot;1&quot;&gt;&lt;p style=&quot;margin:0px;margin-left:4px;&quot;&gt;+ createDosen()&lt;/p&gt;&lt;p style=&quot;margin:0px;margin-left:4px;&quot;&gt;+ addProses()&lt;/p&gt;" style="verticalAlign=top;align=left;overflow=fill;fontSize=12;fontFamily=Helvetica;html=1;whiteSpace=wrap;" vertex="1" parent="4qUUGRl81VGEQDzuzcbY-35">
          <mxGeometry x="200" width="160" height="80" as="geometry" />
        </mxCell>
        <mxCell id="4qUUGRl81VGEQDzuzcbY-27" value="Catatan :&lt;br&gt;1. + index() = notasi&amp;nbsp;methods &quot;+&quot;&amp;nbsp; adalah visibility yang menandakan bahwa methods tersebut &quot;public&quot; &lt;br&gt;dan dapat diakses oleh class lain dan apabila visibility dari suatu methods &quot;-&quot; menandakan bahwa methods tersebut &quot;privat&quot; + &amp;lt;nama suatu method&amp;gt;()&lt;br&gt;&lt;br&gt;2. - nip = atribut yang mana &quot;-&quot; = visibility yang merupakan notasi atribute untuk suatu data&amp;nbsp; - &amp;lt;nama atribute&amp;gt;" style="text;html=1;strokeColor=none;fillColor=none;align=left;verticalAlign=middle;whiteSpace=wrap;rounded=0;" vertex="1" parent="4qUUGRl81VGEQDzuzcbY-35">
          <mxGeometry y="121" width="570" height="100" as="geometry" />
        </mxCell>
        <mxCell id="4qUUGRl81VGEQDzuzcbY-34" value="&lt;p style=&quot;border-color: var(--border-color); margin: 4px 0px 0px; text-align: center;&quot;&gt;&lt;b style=&quot;border-color: var(--border-color);&quot;&gt;Etinty:DosenC&lt;/b&gt;&lt;/p&gt;&lt;p style=&quot;border-color: var(--border-color); margin: 4px 0px 0px; text-align: center;&quot;&gt;&lt;b style=&quot;border-color: var(--border-color);&quot;&gt;(from Use Case View)&lt;/b&gt;&lt;/p&gt;&lt;hr size=&quot;1&quot;&gt;&lt;p style=&quot;margin:0px;margin-left:4px;&quot;&gt;+ nip&lt;/p&gt;&lt;p style=&quot;margin:0px;margin-left:4px;&quot;&gt;- namaDosen&lt;/p&gt;&lt;hr size=&quot;1&quot;&gt;&lt;p style=&quot;margin:0px;margin-left:4px;&quot;&gt;+addDosen()&lt;/p&gt;" style="verticalAlign=top;align=left;overflow=fill;fontSize=12;fontFamily=Helvetica;html=1;whiteSpace=wrap;" vertex="1" parent="4qUUGRl81VGEQDzuzcbY-35">
          <mxGeometry x="380" width="160" height="120" as="geometry" />
        </mxCell>
      </root>
    </mxGraphModel>
  </diagram>
</mxfile>
